<?xml version="1.0" encoding="UTF-8" standalone="no"?>
<svg
   width="48"
   height="46"
   fill="none"
   viewBox="0 0 48 46"
   version="1.1"
   id="svg12643"
   xmlns="http://www.w3.org/2000/svg"
   xmlns:svg="http://www.w3.org/2000/svg">
  <mask
     id="a"
     width="48"
     height="46"
     x="0"
     y="0"
     maskUnits="userSpaceOnUse"
     style="mask-type:alpha">
    <path
       fill="#000"
       d="M25.842 44.938c-.664.844-2.021.375-2.021-.698V33.937a2.26 2.26 0 0 0-2.262-2.262H10.183c-.92 0-1.456-1.04-.92-1.788l7.48-10.471c1.07-1.498 0-3.579-1.842-3.579H1.133c-.92 0-1.456-1.04-.92-1.787L9.91.473c.214-.297.556-.474.92-.474h28.894c.92 0 1.456 1.04.92 1.788l-7.48 10.471c-1.07 1.498 0 3.578 1.842 3.578h11.377c.943 0 1.473 1.088.89 1.832L25.843 44.94z"
       style="fill:#000;fill-opacity:1"
       id="path12471" />
  </mask>
  <defs
     id="defs12641">
    <filter
       id="b"
       width="60.045"
       height="41.654"
       x="-19.77"
       y="16.149"
       color-interpolation-filters="sRGB"
       filterUnits="userSpaceOnUse">
      <feFlood
         flood-opacity="0"
         result="BackgroundImageFix"
         id="feFlood12536" />
      <feBlend
         in="SourceGraphic"
         in2="BackgroundImageFix"
         result="shape"
         id="feBlend12538" />
      <feGaussianBlur
         result="effect1_foregroundBlur_2002_17158"
         stdDeviation="7.659"
         id="feGaussianBlur12540" />
    </filter>
    <filter
       id="c"
       width="90.34"
       height="51.437"
       x="-54.613"
       y="-7.533"
       color-interpolation-filters="sRGB"
       filterUnits="userSpaceOnUse">
      <feFlood
         flood-opacity="0"
         result="BackgroundImageFix"
         id="feFlood12543" />
      <feBlend
         in="SourceGraphic"
         in2="BackgroundImageFix"
         result="shape"
         id="feBlend12545" />
      <feGaussianBlur
         result="effect1_foregroundBlur_2002_17158"
         stdDeviation="7.659"
         id="feGaussianBlur12547" />
    </filter>
    <filter
       id="d"
       width="79.355"
       height="29.4"
       x="-49.64"
       y="2.03"
       color-interpolation-filters="sRGB"
       filterUnits="userSpaceOnUse">
      <feFlood
         flood-opacity="0"
         result="BackgroundImageFix"
         id="feFlood12550" />
      <feBlend
         in="SourceGraphic"
         in2="BackgroundImageFix"
         result="shape"
         id="feBlend12552" />
      <feGaussianBlur
         result="effect1_foregroundBlur_2002_17158"
         stdDeviation="4.596"
         id="feGaussianBlur12554" />
    </filter>
    <filter
       id="e"
       width="79.579"
       height="29.4"
       x="-45.045"
       y="20.029"
       color-interpolation-filters="sRGB"
       filterUnits="userSpaceOnUse">
      <feFlood
         flood-opacity="0"
         result="BackgroundImageFix"
         id="feFlood12557" />
      <feBlend
         in="SourceGraphic"
         in2="BackgroundImageFix"
         result="shape"
         id="feBlend12559" />
      <feGaussianBlur
         result="effect1_foregroundBlur_2002_17158"
         stdDeviation="4.596"
         id="feGaussianBlur12561" />
    </filter>
    <filter
       id="f"
       width="79.579"
       height="29.4"
       x="-43.513"
       y="21.178"
       color-interpolation-filters="sRGB"
       filterUnits="userSpaceOnUse">
      <feFlood
         flood-opacity="0"
         result="BackgroundImageFix"
         id="feFlood12564" />
      <feBlend
         in="SourceGraphic"
         in2="BackgroundImageFix"
         result="shape"
         id="feBlend12566" />
      <feGaussianBlur
         result="effect1_foregroundBlur_2002_17158"
         stdDeviation="4.596"
         id="feGaussianBlur12568" />
    </filter>
    <filter
       id="g"
       width="74.749"
       height="58.852"
       x="15.756"
       y="-17.901"
       color-interpolation-filters="sRGB"
       filterUnits="userSpaceOnUse">
      <feFlood
         flood-opacity="0"
         result="BackgroundImageFix"
         id="feFlood12571" />
      <feBlend
         in="SourceGraphic"
         in2="BackgroundImageFix"
         result="shape"
         id="feBlend12573" />
      <feGaussianBlur
         result="effect1_foregroundBlur_2002_17158"
         stdDeviation="7.659"
         id="feGaussianBlur12575" />
    </filter>
    <filter
       id="h"
       width="61.377"
       height="25.362"
       x="23.548"
       y="2.284"
       color-interpolation-filters="sRGB"
       filterUnits="userSpaceOnUse">
      <feFlood
         flood-opacity="0"
         result="BackgroundImageFix"
         id="feFlood12578" />
      <feBlend
         in="SourceGraphic"
         in2="BackgroundImageFix"
         result="shape"
         id="feBlend12580" />
      <feGaussianBlur
         result="effect1_foregroundBlur_2002_17158"
         stdDeviation="4.596"
         id="feGaussianBlur12582" />
    </filter>
    <filter
       id="i"
       width="61.377"
       height="25.362"
       x="23.548"
       y="2.284"
       color-interpolation-filters="sRGB"
       filterUnits="userSpaceOnUse">
      <feFlood
         flood-opacity="0"
         result="BackgroundImageFix"
         id="feFlood12585" />
      <feBlend
         in="SourceGraphic"
         in2="BackgroundImageFix"
         result="shape"
         id="feBlend12587" />
      <feGaussianBlur
         result="effect1_foregroundBlur_2002_17158"
         stdDeviation="4.596"
         id="feGaussianBlur12589" />
    </filter>
    <filter
       id="j"
       width="56.045"
       height="63.649"
       x="-27.636"
       y="-22.853"
       color-interpolation-filters="sRGB"
       filterUnits="userSpaceOnUse">
      <feFlood
         flood-opacity="0"
         result="BackgroundImageFix"
         id="feFlood12592" />
      <feBlend
         in="SourceGraphic"
         in2="BackgroundImageFix"
         result="shape"
         id="feBlend12594" />
      <feGaussianBlur
         result="effect1_foregroundBlur_2002_17158"
         stdDeviation="4.596"
         id="feGaussianBlur12596" />
    </filter>
    <filter
       id="k"
       width="54.814"
       height="64.646"
       x="20.116"
       y="-38.415"
       color-interpolation-filters="sRGB"
       filterUnits="userSpaceOnUse">
      <feFlood
         flood-opacity="0"
         result="BackgroundImageFix"
         id="feFlood12599" />
      <feBlend
         in="SourceGraphic"
         in2="BackgroundImageFix"
         result="shape"
         id="feBlend12601" />
      <feGaussianBlur
         result="effect1_foregroundBlur_2002_17158"
         stdDeviation="4.596"
         id="feGaussianBlur12603" />
    </filter>
    <filter
       id="l"
       width="33.541"
       height="35.313"
       x="24.641"
       y="-11.323"
       color-interpolation-filters="sRGB"
       filterUnits="userSpaceOnUse">
      <feFlood
         flood-opacity="0"
         result="BackgroundImageFix"
         id="feFlood12606" />
      <feBlend
         in="SourceGraphic"
         in2="BackgroundImageFix"
         result="shape"
         id="feBlend12608" />
      <feGaussianBlur
         result="effect1_foregroundBlur_2002_17158"
         stdDeviation="4.596"
         id="feGaussianBlur12610" />
    </filter>
    <filter
       id="m"
       width="54.814"
       height="64.646"
       x="-29.286"
       y="6.009"
       color-interpolation-filters="sRGB"
       filterUnits="userSpaceOnUse">
      <feFlood
         flood-opacity="0"
         result="BackgroundImageFix"
         id="feFlood12613" />
      <feBlend
         in="SourceGraphic"
         in2="BackgroundImageFix"
         result="shape"
         id="feBlend12615" />
      <feGaussianBlur
         result="effect1_foregroundBlur_2002_17158"
         stdDeviation="4.596"
         id="feGaussianBlur12617" />
    </filter>
    <filter
       id="n"
       width="54.814"
       height="64.646"
       x="-29.286"
       y="6.009"
       color-interpolation-filters="sRGB"
       filterUnits="userSpaceOnUse">
      <feFlood
         flood-opacity="0"
         result="BackgroundImageFix"
         id="feFlood12620" />
      <feBlend
         in="SourceGraphic"
         in2="BackgroundImageFix"
         result="shape"
         id="feBlend12622" />
      <feGaussianBlur
         result="effect1_foregroundBlur_2002_17158"
         stdDeviation="4.596"
         id="feGaussianBlur12624" />
    </filter>
    <filter
       id="o"
       width="54.814"
       height="64.646"
       x="8.244"
       y="-2.416"
       color-interpolation-filters="sRGB"
       filterUnits="userSpaceOnUse">
      <feFlood
         flood-opacity="0"
         result="BackgroundImageFix"
         id="feFlood12627" />
      <feBlend
         in="SourceGraphic"
         in2="BackgroundImageFix"
         result="shape"
         id="feBlend12629" />
      <feGaussianBlur
         result="effect1_foregroundBlur_2002_17158"
         stdDeviation="4.596"
         id="feGaussianBlur12631" />
    </filter>
    <filter
       id="p"
       width="39.409"
       height="43.623"
       x="18.713"
       y="10.588"
       color-interpolation-filters="sRGB"
       filterUnits="userSpaceOnUse">
      <feFlood
         flood-opacity="0"
         result="BackgroundImageFix"
         id="feFlood12634" />
      <feBlend
         in="SourceGraphic"
         in2="BackgroundImageFix"
         result="shape"
         id="feBlend12636" />
      <feGaussianBlur
         result="effect1_foregroundBlur_2002_17158"
         stdDeviation="4.596"
         id="feGaussianBlur12638" />
    </filter>
  </defs>
  <g
     id="g12117"
     transform="matrix(2.0747179,0,0,1.9769676,-107.20806,-97.323733)">
    <path
       style="fill:#000000;fill-opacity:1;stroke-width:0.787819"
       d="m 54.730888,57.553932 c -6.46e-4,-0.03071 6.77e-4,-0.0617 0.002,-0.09199 8.59e-4,-0.01837 -2.15e-4,-0.03653 0.0011,-0.05512 8.59e-4,-0.01191 0.0024,-0.02357 0.0032,-0.03548 l 0.0019,-0.02142 c 0.324821,-4.274234 3.921291,-7.614209 8.214748,-7.614209 4.543259,0 8.239643,3.696385 8.239643,8.239643 0,0.955445 -0.774646,1.730095 -1.730095,1.730095 -0.955448,0 -1.730095,-0.774646 -1.730095,-1.730095 0,-2.635378 -2.144037,-4.779415 -4.779415,-4.779415 -2.251962,0 -4.168918,1.585641 -4.655507,3.721689 l 5.878927,5.878928 c 0.675618,0.675618 0.675618,1.770992 0,2.44661 -0.337807,0.337807 -0.780495,0.506697 -1.223398,0.506697 -0.442902,0 -0.885587,-0.168889 -1.223398,-0.506697 l -6.493962,-6.493962 c -0.0132,-0.0132 -0.02422,-0.02726 -0.03678,-0.04068 -0.0212,-0.02271 -0.04241,-0.04521 -0.06232,-0.069 -0.01859,-0.02206 -0.03567,-0.04456 -0.05296,-0.06706 -0.01665,-0.02185 -0.03308,-0.0437 -0.04865,-0.0662 -0.0173,-0.02508 -0.03351,-0.05059 -0.0493,-0.07632 -0.01342,-0.02185 -0.02662,-0.04392 -0.03918,-0.06641 -0.01471,-0.0268 -0.02856,-0.05361 -0.04176,-0.08084 -0.01166,-0.02379 -0.02268,-0.04736 -0.03327,-0.07158 -0.01145,-0.02637 -0.02203,-0.05318 -0.03197,-0.07998 -0.0099,-0.02637 -0.01923,-0.05275 -0.02788,-0.07977 -0.0082,-0.02551 -0.01557,-0.05124 -0.0225,-0.07718 -0.0078,-0.02899 -0.01492,-0.05776 -0.0212,-0.08718 -0.0054,-0.02551 -0.0098,-0.05103 -0.01409,-0.07654 -0.005,-0.02964 -0.0095,-0.05949 -0.01299,-0.08955 -0.003,-0.02724 -0.005,-0.05447 -0.0067,-0.08171 -0.0019,-0.02834 -0.0037,-0.05668 -0.0041,-0.08524 z"
       id="path11872" />
    <path
       style="fill:#aa8800;fill-opacity:1;stroke-width:0.787819"
       d="m 71.176481,63.975603 c 6.46e-4,0.03093 -4.92e-4,0.0617 -0.0018,0.09177 -8.66e-4,0.01837 2.15e-4,0.03653 -0.0011,0.05512 -8.66e-4,0.01191 -0.0024,0.02357 -0.0032,0.03548 l -0.002,0.02142 c -0.324821,4.274234 -3.921292,7.614209 -8.214748,7.614209 -4.543259,0 -8.239644,-3.696385 -8.239644,-8.239643 0,-0.955445 0.774647,-1.730095 1.730095,-1.730095 0.955449,0 1.730095,0.774647 1.730095,1.730095 0,2.635378 2.144038,4.779415 4.779416,4.779415 2.251962,0 4.168918,-1.58564 4.655507,-3.721689 l -5.878927,-5.878928 c -0.675618,-0.675617 -0.675618,-1.770992 0,-2.44661 0.675832,-0.675618 1.770992,-0.675618 2.446824,0 l 6.493962,6.493962 c 0.0132,0.0132 0.02422,0.02727 0.03677,0.04068 0.0212,0.02271 0.04241,0.0452 0.06232,0.069 0.01859,0.02207 0.03566,0.04456 0.05297,0.06706 0.01665,0.02185 0.03308,0.0437 0.04866,0.06619 0.01729,0.02508 0.03351,0.05059 0.0493,0.07632 0.01342,0.02185 0.02662,0.04391 0.03918,0.06641 0.01471,0.0268 0.02856,0.05361 0.04176,0.08084 0.01166,0.02357 0.02289,0.04736 0.03327,0.07158 0.01145,0.02659 0.02203,0.05318 0.03198,0.07998 0.0099,0.02659 0.01923,0.05297 0.02788,0.07998 0.008,0.02573 0.01535,0.05124 0.02228,0.07718 0.0078,0.02877 0.01493,0.05776 0.0212,0.08718 0.0054,0.02551 0.0098,0.05103 0.01409,0.07654 0.005,0.02964 0.0095,0.05949 0.01298,0.08955 0.003,0.02724 0.005,0.05447 0.0067,0.0817 0.002,0.02835 0.0036,0.05668 0.0041,0.08525 z"
       id="path6731" />
  </g>
</svg>
