<?xml version="1.0" encoding="UTF-8" standalone="no"?>
<!-- Created with Inkscape (http://www.inkscape.org/) -->

<svg
   width="487.55905"
   height="126.25134"
   viewBox="0 0 128.99979 33.404"
   version="1.1"
   id="svg5"
   xml:space="preserve"
   inkscape:version="1.2 (dc2aedaf03, 2022-05-15)"
   sodipodi:docname="solid-5.svg"
   xmlns:inkscape="http://www.inkscape.org/namespaces/inkscape"
   xmlns:sodipodi="http://sodipodi.sourceforge.net/DTD/sodipodi-0.dtd"
   xmlns="http://www.w3.org/2000/svg"
   xmlns:svg="http://www.w3.org/2000/svg"><sodipodi:namedview
     id="namedview7"
     pagecolor="#ffffff"
     bordercolor="#000000"
     borderopacity="0.25"
     inkscape:showpageshadow="2"
     inkscape:pageopacity="0.0"
     inkscape:pagecheckerboard="true"
     inkscape:deskcolor="#d1d1d1"
     inkscape:document-units="mm"
     showgrid="false"
     inkscape:zoom="0.58482173"
     inkscape:cx="369.34332"
     inkscape:cy="646.35082"
     inkscape:window-width="1920"
     inkscape:window-height="1129"
     inkscape:window-x="-8"
     inkscape:window-y="64"
     inkscape:window-maximized="1"
     inkscape:current-layer="SvgjsG1009" /><defs
     id="defs2"><clipPath
       clipPathUnits="userSpaceOnUse"
       id="clipPath3628"><text
         xml:space="preserve"
         style="font-weight:bold;font-size:87.7932px;font-family:'Arial Nova';-inkscape-font-specification:'Arial Nova Bold';fill:#ff7f2a;stroke:#000000;stroke-width:1.23;stroke-dasharray:none;stroke-opacity:1"
         x="125.18462"
         y="252.32974"
         id="text3632"><tspan
           sodipodi:role="line"
           id="tspan3630"
           x="125.18462"
           y="252.32974"
           style="stroke:#000000;stroke-width:1.23;stroke-dasharray:none;stroke-opacity:1">5</tspan></text></clipPath></defs><g
     inkscape:label="Layer 1"
     inkscape:groupmode="layer"
     id="layer1"><g
       id="SvgjsG1009"
       featurekey="nameFeature-0"
       transform="matrix(0.87000502,0,0,0.87000502,6.753931,-5.546535)"
       fill="#322b49"
       style="fill:#000000;fill-opacity:1"><path
         id="path11895"
         style="fill:#000000;fill-opacity:1"
         d="M 86.312889 12.000267 C 85.100115 12.000267 84.116951 12.983435 84.116951 14.196206 L 84.116951 21.320979 C 82.451272 20.1543 80.426213 19.467172 78.242503 19.467172 C 72.581309 19.467172 67.976178 24.072302 67.976178 29.733496 C 67.976178 35.394691 72.581309 40.000415 78.242503 40.000415 C 80.437757 40.000415 82.473017 39.30521 84.14368 38.127007 C 84.30044 39.186342 85.210516 40.000415 86.313483 40.000415 C 87.526258 40.000415 88.509422 39.017247 88.509422 37.804477 L 88.509422 14.196206 C 88.509422 12.983431 87.526254 12.000267 86.313483 12.000267 L 86.312889 12.000267 z M 78.242503 23.859049 C 78.293116 23.859049 78.343658 23.859552 78.393968 23.860831 C 78.444278 23.86211 78.494252 23.864228 78.544244 23.866771 C 78.594236 23.869313 78.644269 23.872484 78.693927 23.876274 C 78.743585 23.880065 78.793112 23.884319 78.842421 23.889342 C 78.89173 23.894365 78.940784 23.899733 78.989728 23.905973 C 79.038673 23.912213 79.087283 23.919321 79.135847 23.926762 C 79.184411 23.934204 79.233203 23.942488 79.281372 23.951115 C 79.32954 23.959743 79.377357 23.96864 79.425114 23.978438 C 79.472872 23.988237 79.520338 23.998372 79.567669 24.009325 C 79.615 24.020278 79.662147 24.032277 79.709036 24.04437 C 79.755925 24.056463 79.802784 24.069168 79.849215 24.082385 C 79.895646 24.095601 79.941654 24.109044 79.987612 24.123369 C 80.03357 24.137694 80.079352 24.152499 80.124821 24.167918 C 80.170291 24.183336 80.215283 24.199534 80.260248 24.21603 C 80.305213 24.232526 80.350042 24.249554 80.394487 24.267112 C 80.438933 24.28467 80.483034 24.30256 80.526945 24.321164 C 80.570855 24.339768 80.614854 24.359145 80.658214 24.37878 C 80.701574 24.398415 80.744313 24.418715 80.787107 24.439366 C 80.829901 24.460017 80.8726 24.480677 80.914813 24.502328 C 80.957025 24.523978 80.999121 24.546218 81.040736 24.568853 C 81.082351 24.591489 81.123281 24.614744 81.164283 24.638349 C 81.205286 24.661953 81.246269 24.686256 81.286643 24.710814 C 81.327018 24.735372 81.366896 24.760159 81.406627 24.785655 C 81.446358 24.811151 81.485757 24.837048 81.524828 24.863466 C 81.5639 24.889885 81.602851 24.916922 81.641248 24.944248 C 81.679645 24.971573 81.717585 24.999187 81.755292 25.027405 C 81.792999 25.055622 81.830553 25.084438 81.867554 25.113531 C 81.904556 25.142625 81.94116 25.17208 81.97744 25.202034 C 82.013721 25.231988 82.049406 25.262114 82.08495 25.292913 C 82.120494 25.323712 82.155887 25.355133 82.190678 25.386762 C 82.22547 25.41839 82.259412 25.450543 82.293437 25.482986 C 82.327461 25.515429 82.361172 25.548345 82.394413 25.581587 C 82.427654 25.614828 82.460571 25.648539 82.493013 25.682563 C 82.525456 25.716587 82.557609 25.750529 82.589238 25.785321 C 82.620867 25.820113 82.652288 25.855505 82.683087 25.891049 C 82.713886 25.926593 82.744011 25.962279 82.773965 25.998559 C 82.803919 26.03484 82.833375 26.072038 82.862468 26.109039 C 82.891561 26.146041 82.920378 26.183 82.948595 26.220707 C 82.976812 26.258415 83.004426 26.296354 83.031752 26.334751 C 83.059078 26.373149 83.086114 26.412099 83.112533 26.451171 C 83.138952 26.490243 83.164848 26.529642 83.190344 26.569373 C 83.21584 26.609104 83.241221 26.648982 83.26578 26.689356 C 83.290338 26.729731 83.314046 26.770713 83.337651 26.811716 C 83.361255 26.852719 83.384511 26.894242 83.407146 26.935858 C 83.429782 26.977473 83.452021 27.018975 83.473672 27.061187 C 83.495323 27.103399 83.516577 27.146099 83.537228 27.188892 C 83.557879 27.231686 83.577584 27.274426 83.59722 27.317786 C 83.616855 27.361146 83.636231 27.405144 83.654835 27.449055 C 83.67344 27.492966 83.69133 27.537067 83.708888 27.581512 C 83.726445 27.625958 83.743474 27.670786 83.75997 27.715751 C 83.776465 27.760717 83.792664 27.805709 83.808082 27.851178 C 83.8235 27.896648 83.838305 27.942429 83.85263 27.988388 C 83.866956 28.034346 83.880992 28.080353 83.894209 28.126785 C 83.907425 28.173216 83.919537 28.220075 83.931629 28.266963 C 83.943722 28.313852 83.955721 28.360999 83.966674 28.40833 C 83.977627 28.455661 83.987763 28.503128 83.997561 28.550885 C 84.007359 28.598643 84.01685 28.646459 84.025478 28.694628 C 84.034106 28.742797 84.041796 28.791588 84.049237 28.840153 C 84.056679 28.888717 84.063786 28.937327 84.070026 28.986271 C 84.076267 29.035216 84.081635 29.084269 84.086658 29.133578 C 84.091681 29.182887 84.095935 29.232415 84.099725 29.282073 C 84.103516 29.331731 84.106687 29.381764 84.109229 29.431755 C 84.111772 29.481747 84.11389 29.531722 84.115169 29.582032 C 84.116448 29.632342 84.116951 29.682884 84.116951 29.733496 C 84.116951 29.784109 84.116448 29.834651 84.115169 29.884961 C 84.11389 29.935271 84.111772 29.985246 84.109229 30.035238 C 84.106687 30.085229 84.103516 30.135262 84.099725 30.18492 C 84.095935 30.234578 84.091681 30.284106 84.086658 30.333415 C 84.081635 30.382724 84.076266 30.431777 84.070026 30.480721 C 84.063786 30.529666 84.056679 30.578276 84.049237 30.62684 C 84.041796 30.675404 84.034106 30.723602 84.025478 30.771771 C 84.016851 30.81994 84.007359 30.86835 83.997561 30.916108 C 83.987763 30.963865 83.977627 31.011332 83.966674 31.058663 C 83.955721 31.105993 83.943722 31.153141 83.931629 31.200029 C 83.919537 31.246918 83.907425 31.293183 83.894209 31.339614 C 83.880992 31.386046 83.866955 31.432647 83.85263 31.478605 C 83.838305 31.524563 83.8235 31.569751 83.808082 31.61522 C 83.792664 31.66069 83.776465 31.706276 83.75997 31.751242 C 83.743474 31.796207 83.726445 31.841035 83.708888 31.885481 C 83.69133 31.929926 83.67344 31.974027 83.654835 32.017938 C 83.636231 32.061848 83.616855 32.105253 83.59722 32.148613 C 83.577584 32.191973 83.557879 32.235307 83.537228 32.2781 C 83.516577 32.320894 83.495323 32.363 83.473672 32.405212 C 83.452021 32.447424 83.429782 32.48952 83.407146 32.531135 C 83.384511 32.572751 83.361255 32.614274 83.337651 32.655277 C 83.314046 32.696279 83.290338 32.736668 83.26578 32.777042 C 83.241222 32.817417 83.21584 32.857889 83.190344 32.89762 C 83.164848 32.937351 83.138952 32.97675 83.112533 33.015822 C 83.086114 33.054894 83.059078 33.09325 83.031752 33.131648 C 83.004426 33.170045 82.976812 33.207984 82.948595 33.245691 C 82.920378 33.283399 82.891561 33.320952 82.862468 33.357953 C 82.833375 33.394955 82.803919 33.431559 82.773965 33.467839 C 82.744011 33.50412 82.713886 33.5404 82.683087 33.575944 C 82.652288 33.611487 82.620866 33.646286 82.589238 33.681078 C 82.557609 33.71587 82.525456 33.750406 82.493013 33.78443 C 82.460571 33.818454 82.427654 33.852165 82.394413 33.885406 C 82.361172 33.918648 82.327461 33.951564 82.293437 33.984007 C 82.259412 34.016449 82.22547 34.048603 82.190678 34.080231 C 82.155887 34.11186 82.120494 34.142687 82.08495 34.173486 C 82.049406 34.204285 82.013721 34.235005 81.97744 34.264959 C 81.94116 34.294913 81.904556 34.324368 81.867554 34.353461 C 81.830553 34.382555 81.792999 34.411371 81.755292 34.439588 C 81.717585 34.467806 81.679645 34.49542 81.641248 34.522745 C 81.602851 34.550071 81.5639 34.577108 81.524828 34.603526 C 81.485757 34.629945 81.446358 34.655841 81.406627 34.681338 C 81.366896 34.706834 81.327018 34.731621 81.286643 34.756179 C 81.246269 34.780737 81.205286 34.80504 81.164283 34.828644 C 81.123281 34.852249 81.082351 34.87491 81.040736 34.897546 C 80.999121 34.920181 80.957025 34.94242 80.914813 34.964071 C 80.8726 34.985722 80.829901 35.006976 80.787107 35.027627 C 80.744313 35.048278 80.701574 35.068578 80.658214 35.088213 C 80.614854 35.107848 80.570855 35.126631 80.526945 35.145235 C 80.483034 35.163839 80.438933 35.182323 80.394487 35.199881 C 80.350042 35.217439 80.305214 35.234467 80.260248 35.250963 C 80.215283 35.267459 80.170291 35.283063 80.124821 35.298481 C 80.079352 35.3139 80.03357 35.329298 79.987612 35.343624 C 79.941654 35.357949 79.895646 35.371392 79.849215 35.384608 C 79.802784 35.397825 79.755925 35.41053 79.709036 35.422623 C 79.662147 35.434715 79.615 35.44612 79.567669 35.457074 C 79.520338 35.468027 79.472872 35.478756 79.425114 35.488554 C 79.377357 35.498353 79.32954 35.50725 79.281372 35.515877 C 79.233203 35.524505 79.184411 35.532789 79.135847 35.540231 C 79.087282 35.547672 79.038673 35.554186 78.989728 35.560426 C 78.940784 35.566666 78.891731 35.572628 78.842421 35.577651 C 78.793112 35.582674 78.743585 35.586928 78.693927 35.590719 C 78.644268 35.594509 78.594236 35.59768 78.544244 35.600222 C 78.494252 35.602765 78.444278 35.604883 78.393968 35.606162 C 78.343658 35.607441 78.293116 35.607944 78.242503 35.607944 C 78.191891 35.607944 78.141349 35.607441 78.091039 35.606162 C 78.040729 35.604883 77.990754 35.602765 77.940762 35.600222 C 77.89077 35.59768 77.840738 35.594509 77.791079 35.590719 C 77.741421 35.586928 77.692488 35.582674 77.643179 35.577651 C 77.59387 35.572628 77.544223 35.566666 77.495278 35.560426 C 77.446334 35.554186 77.397724 35.547672 77.349159 35.540231 C 77.300595 35.532789 77.252397 35.524505 77.204229 35.515877 C 77.15606 35.50725 77.108243 35.498353 77.060486 35.488554 C 77.012728 35.478756 76.964668 35.468027 76.917337 35.457074 C 76.870006 35.44612 76.823453 35.434715 76.776564 35.422623 C 76.729675 35.41053 76.682816 35.397825 76.636385 35.384608 C 76.589954 35.371392 76.543946 35.357949 76.497988 35.343624 C 76.45203 35.329298 76.406249 35.3139 76.360779 35.298481 C 76.31531 35.283063 76.269723 35.267459 76.224758 35.250963 C 76.179793 35.234467 76.134965 35.217439 76.090519 35.199881 C 76.046073 35.182323 76.001972 35.163839 75.958062 35.145235 C 75.914151 35.126631 75.870746 35.107848 75.827386 35.088213 C 75.784026 35.068578 75.740693 35.048278 75.697899 35.027627 C 75.655105 35.006976 75.613 34.985722 75.570788 34.964071 C 75.528575 34.94242 75.486479 34.920181 75.444864 34.897546 C 75.403249 34.87491 75.361725 34.852249 75.320723 34.828644 C 75.27972 34.80504 75.239332 34.780737 75.198957 34.756179 C 75.158583 34.731621 75.118704 34.706834 75.078973 34.681338 C 75.039243 34.655841 74.999844 34.629945 74.960772 34.603526 C 74.9217 34.577108 74.882749 34.550071 74.844352 34.522745 C 74.805955 34.49542 74.768015 34.467806 74.730308 34.439588 C 74.692601 34.411371 74.655048 34.382555 74.618046 34.353461 C 74.581045 34.324368 74.544441 34.294913 74.50816 34.264959 C 74.47188 34.235005 74.436194 34.204285 74.40065 34.173486 C 74.365106 34.142687 74.329714 34.11186 74.294922 34.080231 C 74.26013 34.048603 74.225594 34.016449 74.19157 33.984007 C 74.157545 33.951564 74.123834 33.918648 74.090593 33.885406 C 74.057352 33.852165 74.024435 33.818454 73.991993 33.78443 C 73.95955 33.750406 73.927991 33.71587 73.896362 33.681078 C 73.864734 33.646286 73.833313 33.611487 73.802514 33.575944 C 73.771715 33.5404 73.740995 33.50412 73.711041 33.467839 C 73.681087 33.431559 73.651631 33.394955 73.622538 33.357953 C 73.593445 33.320952 73.565222 33.283399 73.537005 33.245691 C 73.508788 33.207984 73.48058 33.170045 73.453254 33.131648 C 73.425928 33.09325 73.399486 33.054894 73.373067 33.015822 C 73.346648 32.97675 73.320158 32.937351 73.294662 32.89762 C 73.269166 32.857889 73.244379 32.817417 73.219821 32.777042 C 73.195263 32.736668 73.17096 32.696279 73.147355 32.655277 C 73.123751 32.614274 73.101089 32.572751 73.078454 32.531135 C 73.055818 32.48952 73.033579 32.447424 73.011928 32.405212 C 72.990277 32.363 72.969023 32.320894 72.948372 32.2781 C 72.927722 32.235307 72.907422 32.191973 72.887787 32.148613 C 72.868151 32.105253 72.849369 32.061848 72.830765 32.017938 C 72.81216 31.974027 72.793676 31.929926 72.776119 31.885481 C 72.758561 31.841035 72.741532 31.796207 72.725037 31.751242 C 72.708541 31.706276 72.692936 31.66069 72.677518 31.61522 C 72.6621 31.569751 72.647295 31.524563 72.63297 31.478605 C 72.618645 31.432647 72.604608 31.386046 72.591391 31.339614 C 72.578175 31.293183 72.565469 31.246918 72.553377 31.200029 C 72.541284 31.153141 72.529879 31.105993 72.518926 31.058663 C 72.507973 31.011332 72.497837 30.963865 72.488039 30.916108 C 72.478241 30.86835 72.46875 30.81994 72.460122 30.771771 C 72.451495 30.723602 72.443211 30.675404 72.435769 30.62684 C 72.428327 30.578276 72.421814 30.529666 72.415574 30.480721 C 72.409334 30.431777 72.403371 30.382724 72.398348 30.333415 C 72.393325 30.284106 72.389071 30.234578 72.385281 30.18492 C 72.38149 30.135262 72.37832 30.085229 72.375777 30.035238 C 72.373235 29.985246 72.371116 29.935271 72.369837 29.884961 C 72.368558 29.834651 72.368055 29.784109 72.368055 29.733496 C 72.368055 29.682884 72.368558 29.632342 72.369837 29.582032 C 72.371116 29.531722 72.373235 29.481747 72.375777 29.431755 C 72.37832 29.381764 72.38149 29.331731 72.385281 29.282073 C 72.389071 29.232415 72.393325 29.182887 72.398348 29.133578 C 72.403371 29.084269 72.409334 29.035216 72.415574 28.986271 C 72.421814 28.937327 72.428327 28.888717 72.435769 28.840153 C 72.443211 28.791588 72.451495 28.742797 72.460122 28.694628 C 72.46875 28.646459 72.478241 28.598643 72.488039 28.550885 C 72.497837 28.503128 72.507973 28.455661 72.518926 28.40833 C 72.529879 28.360999 72.541284 28.313852 72.553377 28.266963 C 72.565469 28.220075 72.578175 28.173216 72.591391 28.126785 C 72.604608 28.080353 72.618645 28.034346 72.63297 27.988388 C 72.647295 27.942429 72.6621 27.896648 72.677518 27.851178 C 72.692936 27.805709 72.708541 27.760717 72.725037 27.715751 C 72.741532 27.670786 72.758561 27.625958 72.776119 27.581512 C 72.793676 27.537067 72.81216 27.492966 72.830765 27.449055 C 72.849369 27.405144 72.868151 27.361146 72.887787 27.317786 C 72.907422 27.274426 72.927722 27.231686 72.948372 27.188892 C 72.969023 27.146099 72.990277 27.103399 73.011928 27.061187 C 73.033579 27.018975 73.055818 26.977473 73.078454 26.935858 C 73.101089 26.894242 73.123751 26.852719 73.147355 26.811716 C 73.17096 26.770713 73.195263 26.729731 73.219821 26.689356 C 73.244379 26.648982 73.269166 26.609104 73.294662 26.569373 C 73.320158 26.529642 73.346648 26.490243 73.373067 26.451171 C 73.399486 26.412099 73.425928 26.373149 73.453254 26.334751 C 73.48058 26.296354 73.508788 26.258415 73.537005 26.220707 C 73.565222 26.183 73.593445 26.146041 73.622538 26.109039 C 73.651631 26.072038 73.681087 26.03484 73.711041 25.998559 C 73.740995 25.962279 73.771715 25.926593 73.802514 25.891049 C 73.833313 25.855505 73.864734 25.820113 73.896362 25.785321 C 73.927991 25.750529 73.95955 25.716587 73.991993 25.682563 C 74.024435 25.648539 74.057352 25.614828 74.090593 25.581587 C 74.123834 25.548345 74.157545 25.515429 74.19157 25.482986 C 74.225594 25.450543 74.26013 25.41839 74.294922 25.386762 C 74.329714 25.355133 74.365106 25.323712 74.40065 25.292913 C 74.436194 25.262114 74.47188 25.231988 74.50816 25.202034 C 74.544441 25.17208 74.581045 25.142625 74.618046 25.113531 C 74.655048 25.084438 74.692601 25.055622 74.730308 25.027405 C 74.768015 24.999187 74.805955 24.971573 74.844352 24.944248 C 74.882749 24.916922 74.9217 24.889885 74.960772 24.863466 C 74.999844 24.837048 75.039243 24.811151 75.078973 24.785655 C 75.118704 24.760159 75.158583 24.735372 75.198957 24.710814 C 75.239332 24.686256 75.27972 24.661953 75.320723 24.638349 C 75.361725 24.614744 75.403249 24.591489 75.444864 24.568853 C 75.486479 24.546218 75.528575 24.523978 75.570788 24.502328 C 75.613 24.480677 75.655105 24.460017 75.697899 24.439366 C 75.740693 24.418715 75.784026 24.398415 75.827386 24.37878 C 75.870746 24.359145 75.914151 24.339768 75.958062 24.321164 C 76.001972 24.30256 76.046073 24.28467 76.090519 24.267112 C 76.134965 24.249554 76.179793 24.232526 76.224758 24.21603 C 76.269723 24.199534 76.31531 24.183336 76.360779 24.167918 C 76.406249 24.152499 76.45203 24.137694 76.497988 24.123369 C 76.543946 24.109044 76.589954 24.095601 76.636385 24.082385 C 76.682816 24.069168 76.729675 24.056463 76.776564 24.04437 C 76.823453 24.032277 76.870006 24.020278 76.917337 24.009325 C 76.964668 23.998372 77.012728 23.988237 77.060486 23.978438 C 77.108243 23.96864 77.15606 23.959743 77.204229 23.951115 C 77.252397 23.942488 77.300595 23.934204 77.349159 23.926762 C 77.397724 23.919321 77.446334 23.912213 77.495278 23.905973 C 77.544223 23.899733 77.59387 23.894365 77.643179 23.889342 C 77.692488 23.884319 77.741421 23.880065 77.791079 23.876274 C 77.840738 23.872484 77.89077 23.869313 77.940762 23.866771 C 77.990754 23.864228 78.040729 23.86211 78.091039 23.860831 C 78.141349 23.859552 78.191891 23.859049 78.242503 23.859049 z " /><path
         id="path11892"
         style="fill:#000000;fill-opacity:1"
         d="M 34.747831 19.411932 C 29.071517 19.411932 24.454183 24.029859 24.454183 29.706173 C 24.454183 35.382488 29.071517 39.999821 34.747831 39.999821 C 40.424146 39.999821 45.042073 35.382488 45.042073 29.706173 C 45.042073 24.029859 40.424106 19.411932 34.747831 19.411932 z M 34.747831 23.803809 C 34.79868 23.803809 34.849345 23.804306 34.89989 23.805591 C 34.950434 23.806876 35.001129 23.808976 35.051354 23.811531 C 35.101579 23.814085 35.151741 23.817226 35.201631 23.821034 C 35.251521 23.824843 35.301181 23.829649 35.35072 23.834696 C 35.400259 23.839742 35.449447 23.845058 35.49862 23.851327 C 35.547793 23.857596 35.597136 23.86464 35.645927 23.872116 C 35.694718 23.879593 35.743058 23.887801 35.791452 23.896469 C 35.839845 23.905138 35.887808 23.913948 35.935788 23.923792 C 35.983769 23.933637 36.031979 23.944269 36.079531 23.955273 C 36.127083 23.966278 36.174384 23.978169 36.221492 23.990318 C 36.2686 24.002467 36.315023 24.015054 36.361671 24.028333 C 36.408319 24.041611 36.455083 24.055519 36.501256 24.069911 C 36.547429 24.084304 36.593377 24.098969 36.639059 24.11446 C 36.684741 24.12995 36.729905 24.145999 36.77508 24.162572 C 36.820255 24.179145 36.86526 24.196608 36.909913 24.214248 C 36.954567 24.231888 36.998849 24.249608 37.042964 24.2683 C 37.08708 24.286992 37.131265 24.306188 37.174828 24.325916 C 37.21839 24.345643 37.261321 24.366348 37.304315 24.387096 C 37.347309 24.407844 37.390205 24.428899 37.432614 24.450651 C 37.475024 24.472404 37.517322 24.494435 37.559132 24.517177 C 37.600942 24.539919 37.642079 24.563551 37.683273 24.587266 C 37.724468 24.610982 37.765663 24.635059 37.806227 24.659732 C 37.84679 24.684405 37.886888 24.709551 37.926804 24.735167 C 37.966721 24.760783 38.006345 24.786436 38.0456 24.812978 C 38.084855 24.839521 38.124037 24.8669 38.162614 24.894353 C 38.201191 24.921807 38.239368 24.949755 38.277252 24.978104 C 38.315135 25.006454 38.352339 25.035002 38.389514 25.064231 C 38.426688 25.093461 38.463543 25.123234 38.499994 25.153328 C 38.536444 25.183422 38.572387 25.213857 38.608098 25.244801 C 38.643808 25.275744 38.679465 25.307467 38.71442 25.339243 C 38.749375 25.37102 38.783589 25.402873 38.817772 25.435468 C 38.851956 25.468062 38.885946 25.501265 38.919343 25.534662 C 38.952739 25.568059 38.985942 25.601455 39.018537 25.635639 C 39.051132 25.669822 39.082985 25.70463 39.114761 25.739585 C 39.146538 25.77454 39.178261 25.810197 39.209204 25.845907 C 39.240147 25.881617 39.270582 25.917561 39.300677 25.954011 C 39.330771 25.990461 39.360544 26.027316 39.389774 26.064491 C 39.419003 26.101666 39.447551 26.138869 39.4759 26.176753 C 39.50425 26.214637 39.532198 26.252814 39.559651 26.291391 C 39.587105 26.329968 39.61389 26.36915 39.640432 26.408405 C 39.666975 26.447659 39.693222 26.487284 39.718838 26.5272 C 39.744453 26.567117 39.7696 26.607215 39.794273 26.647778 C 39.818946 26.688341 39.843023 26.729537 39.866738 26.770732 C 39.890454 26.811926 39.914086 26.853063 39.936828 26.894873 C 39.959569 26.936683 39.981601 26.978981 40.003353 27.02139 C 40.025106 27.0638 40.046161 27.106696 40.066909 27.14969 C 40.087657 27.192684 40.108361 27.235614 40.128089 27.279177 C 40.147816 27.32274 40.167013 27.366925 40.185705 27.41104 C 40.204396 27.455156 40.222117 27.499438 40.239757 27.544092 C 40.257397 27.588745 40.27486 27.633749 40.291433 27.678925 C 40.308006 27.7241 40.324055 27.769264 40.339545 27.814946 C 40.355036 27.860628 40.369701 27.906576 40.384094 27.952749 C 40.398486 27.998922 40.412393 28.045092 40.425672 28.09174 C 40.438951 28.138388 40.451537 28.185405 40.463687 28.232513 C 40.475836 28.27962 40.487727 28.326922 40.498731 28.374474 C 40.509736 28.422025 40.520368 28.470236 40.530212 28.518216 C 40.540056 28.566197 40.548867 28.61416 40.557535 28.662553 C 40.566203 28.710947 40.574412 28.759287 40.581888 28.808078 C 40.589365 28.856869 40.596408 28.906212 40.602678 28.955385 C 40.608947 29.004557 40.614262 29.053746 40.619309 29.103285 C 40.624356 29.152824 40.629162 29.202484 40.632971 29.252374 C 40.636779 29.302264 40.63992 29.352426 40.642474 29.40265 C 40.645029 29.452875 40.646535 29.502977 40.64782 29.553521 C 40.649105 29.604065 40.650196 29.655325 40.650196 29.706173 C 40.650196 29.757022 40.649105 29.807687 40.64782 29.858232 C 40.646535 29.908776 40.645029 29.958878 40.642474 30.009102 C 40.63992 30.059327 40.636779 30.109489 40.632971 30.159379 C 40.629162 30.209269 40.624356 30.258929 40.619309 30.308468 C 40.614262 30.358007 40.608947 30.407196 40.602678 30.456368 C 40.596408 30.505541 40.589365 30.554884 40.581888 30.603675 C 40.574412 30.652466 40.566203 30.700806 40.557535 30.7492 C 40.548867 30.797593 40.540056 30.845556 40.530212 30.893537 C 40.520368 30.941517 40.509736 30.989727 40.498731 31.037279 C 40.487727 31.084831 40.475836 31.132132 40.463687 31.17924 C 40.451537 31.226348 40.438951 31.273365 40.425672 31.320013 C 40.412393 31.366661 40.398486 31.412831 40.384094 31.459004 C 40.369701 31.505177 40.355036 31.551125 40.339545 31.596807 C 40.324055 31.642489 40.308006 31.687653 40.291433 31.732828 C 40.27486 31.778004 40.257397 31.823008 40.239757 31.867661 C 40.222117 31.912315 40.204396 31.956597 40.185705 32.000713 C 40.167013 32.044828 40.147816 32.089013 40.128089 32.132576 C 40.108361 32.176138 40.087657 32.219069 40.066909 32.262063 C 40.046161 32.305057 40.025106 32.347953 40.003353 32.390362 C 39.981601 32.432772 39.959569 32.47507 39.936828 32.51688 C 39.914086 32.55869 39.890454 32.599827 39.866738 32.641021 C 39.843023 32.682216 39.818946 32.723412 39.794273 32.763975 C 39.7696 32.804538 39.744453 32.844636 39.718838 32.884553 C 39.693222 32.924469 39.666975 32.964094 39.640432 33.003348 C 39.61389 33.042603 39.587105 33.081785 39.559651 33.120362 C 39.532198 33.158939 39.50425 33.197116 39.4759 33.235 C 39.447551 33.272884 39.419003 33.310087 39.389774 33.347262 C 39.360544 33.384437 39.330771 33.421291 39.300677 33.457742 C 39.270582 33.494192 39.240147 33.530136 39.209204 33.565846 C 39.178261 33.601556 39.146538 33.637213 39.114761 33.672168 C 39.082985 33.707123 39.051132 33.741931 39.018537 33.776114 C 38.985942 33.810298 38.952739 33.843694 38.919343 33.877091 C 38.885946 33.910488 38.851956 33.94369 38.817772 33.976285 C 38.783589 34.00888 38.749375 34.040733 38.71442 34.07251 C 38.679465 34.104286 38.643808 34.136009 38.608098 34.166952 C 38.572387 34.197896 38.536444 34.228331 38.499994 34.258425 C 38.463543 34.288519 38.426689 34.318292 38.389514 34.347522 C 38.352339 34.376751 38.315135 34.405299 38.277252 34.433649 C 38.239368 34.461998 38.201191 34.489946 38.162614 34.5174 C 38.124037 34.544853 38.084855 34.572232 38.0456 34.598775 C 38.006345 34.625317 37.966721 34.65097 37.926804 34.676586 C 37.886888 34.702201 37.84679 34.727348 37.806227 34.752021 C 37.765663 34.776694 37.724468 34.800771 37.683273 34.824486 C 37.642079 34.848202 37.600942 34.871834 37.559132 34.894576 C 37.517322 34.917318 37.475024 34.939349 37.432614 34.961101 C 37.390205 34.982854 37.347309 35.003909 37.304315 35.024657 C 37.261321 35.045405 37.21839 35.066109 37.174828 35.085837 C 37.131265 35.105564 37.08708 35.124761 37.042964 35.143453 C 36.998849 35.162145 36.954567 35.179865 36.909913 35.197505 C 36.86526 35.215145 36.820255 35.232608 36.77508 35.249181 C 36.729905 35.265754 36.684741 35.281803 36.639059 35.297293 C 36.593377 35.312784 36.547429 35.327449 36.501256 35.341842 C 36.455083 35.356234 36.408319 35.370142 36.361671 35.38342 C 36.315023 35.396699 36.2686 35.409285 36.221492 35.421435 C 36.174384 35.433584 36.127083 35.445475 36.079531 35.45648 C 36.031979 35.467484 35.983769 35.478116 35.935788 35.48796 C 35.887808 35.497805 35.839845 35.506615 35.791452 35.515283 C 35.743058 35.523952 35.694718 35.53216 35.645927 35.539637 C 35.597136 35.547113 35.547793 35.554156 35.49862 35.560426 C 35.449448 35.566695 35.400258 35.572011 35.35072 35.577057 C 35.301181 35.582104 35.251521 35.58691 35.201631 35.590719 C 35.151741 35.594527 35.101579 35.597668 35.051354 35.600222 C 35.00113 35.602777 34.950434 35.604877 34.89989 35.606162 C 34.849346 35.607447 34.79868 35.607944 34.747831 35.607944 C 34.696983 35.607944 34.646317 35.607447 34.595773 35.606162 C 34.545228 35.604877 34.495127 35.602777 34.444902 35.600222 C 34.394677 35.597668 34.344515 35.594527 34.294626 35.590719 C 34.244736 35.58691 34.195076 35.582104 34.145537 35.577057 C 34.095998 35.572011 34.046809 35.566695 33.997636 35.560426 C 33.948464 35.554156 33.899121 35.547113 33.85033 35.539637 C 33.801539 35.53216 33.753198 35.523952 33.704805 35.515283 C 33.656412 35.506615 33.607855 35.497805 33.559874 35.48796 C 33.511894 35.478116 33.464277 35.467484 33.416725 35.45648 C 33.369174 35.445475 33.321872 35.433584 33.274765 35.421435 C 33.227657 35.409285 33.18064 35.396699 33.133992 35.38342 C 33.087344 35.370142 33.041173 35.356234 32.995001 35.341842 C 32.948828 35.327449 32.90288 35.312784 32.857198 35.297293 C 32.811516 35.281803 32.766352 35.265754 32.721177 35.249181 C 32.676001 35.232608 32.630997 35.215145 32.586343 35.197505 C 32.54169 35.179865 32.496814 35.162145 32.452698 35.143453 C 32.408582 35.124761 32.364992 35.105564 32.321429 35.085837 C 32.277866 35.066109 32.234342 35.045405 32.191348 35.024657 C 32.148354 35.003909 32.106052 34.982854 32.063642 34.961101 C 32.021233 34.939349 31.978935 34.917318 31.937125 34.894576 C 31.895315 34.871834 31.853584 34.848202 31.812389 34.824486 C 31.771195 34.800771 31.730593 34.776694 31.69003 34.752021 C 31.649466 34.727348 31.609369 34.702201 31.569452 34.676586 C 31.529535 34.65097 31.489911 34.625317 31.450657 34.598775 C 31.411402 34.572232 31.37222 34.544853 31.333643 34.5174 C 31.295066 34.489946 31.256889 34.461998 31.219005 34.433649 C 31.181121 34.405299 31.143918 34.376751 31.106743 34.347522 C 31.069568 34.318292 31.032713 34.288519 30.996263 34.258425 C 30.959813 34.228331 30.923275 34.197896 30.887565 34.166952 C 30.851855 34.136009 30.816791 34.104286 30.781837 34.07251 C 30.746882 34.040733 30.712074 34.00888 30.67789 33.976285 C 30.643707 33.94369 30.610311 33.910488 30.576914 33.877091 C 30.543517 33.843694 30.510314 33.810298 30.47772 33.776114 C 30.445125 33.741931 30.412678 33.707123 30.380901 33.672168 C 30.349124 33.637213 30.317996 33.601556 30.287053 33.565846 C 30.256109 33.530136 30.225674 33.494192 30.19558 33.457742 C 30.165486 33.421291 30.135713 33.384437 30.106483 33.347262 C 30.077253 33.310087 30.048706 33.272884 30.020356 33.235 C 29.992007 33.197116 29.964059 33.158939 29.936605 33.120362 C 29.909151 33.081785 29.881773 33.042603 29.85523 33.003348 C 29.828688 32.964094 29.803035 32.924469 29.777419 32.884553 C 29.751803 32.844636 29.726657 32.804538 29.701984 32.763975 C 29.67731 32.723412 29.65264 32.682216 29.628924 32.641021 C 29.605209 32.599827 29.582171 32.55869 29.559429 32.51688 C 29.536687 32.47507 29.514656 32.432772 29.492903 32.390362 C 29.471151 32.347953 29.449501 32.305057 29.428754 32.262063 C 29.408006 32.219069 29.387895 32.176138 29.368168 32.132576 C 29.34844 32.089013 29.329244 32.044828 29.310552 32.000713 C 29.29186 31.956597 29.273546 31.912315 29.255906 31.867661 C 29.238266 31.823008 29.221397 31.778004 29.204824 31.732828 C 29.188251 31.687653 29.172202 31.642489 29.156711 31.596807 C 29.141221 31.551125 29.126555 31.505177 29.112163 31.459004 C 29.097771 31.412831 29.083863 31.366661 29.070585 31.320013 C 29.057306 31.273365 29.044125 31.226348 29.031976 31.17924 C 29.019827 31.132132 29.00853 31.084831 28.997525 31.037279 C 28.986521 30.989727 28.975888 30.941517 28.966044 30.893537 C 28.9562 30.845556 28.947389 30.797593 28.938721 30.7492 C 28.930053 30.700806 28.921845 30.652466 28.914368 30.603675 C 28.906892 30.554884 28.899848 30.505541 28.893579 30.456368 C 28.88731 30.407196 28.8814 30.358007 28.876354 30.308468 C 28.871307 30.258929 28.867094 30.209269 28.863286 30.159379 C 28.859478 30.109489 28.856337 30.059327 28.853782 30.009102 C 28.851228 29.958878 28.849128 29.908776 28.847843 29.858232 C 28.846558 29.807687 28.846061 29.757022 28.846061 29.706173 C 28.846061 29.655325 28.846558 29.604065 28.847843 29.553521 C 28.849128 29.502977 28.851228 29.452875 28.853782 29.40265 C 28.856337 29.352426 28.859478 29.302264 28.863286 29.252374 C 28.867094 29.202484 28.871307 29.152824 28.876354 29.103285 C 28.8814 29.053746 28.88731 29.004557 28.893579 28.955385 C 28.899848 28.906212 28.906892 28.856869 28.914368 28.808078 C 28.921845 28.759287 28.930053 28.710947 28.938721 28.662553 C 28.947389 28.61416 28.9562 28.566197 28.966044 28.518216 C 28.975888 28.470236 28.986521 28.422025 28.997525 28.374474 C 29.00853 28.326922 29.019827 28.27962 29.031976 28.232513 C 29.044125 28.185405 29.057306 28.138388 29.070585 28.09174 C 29.083863 28.045092 29.097771 27.998922 29.112163 27.952749 C 29.126555 27.906576 29.141221 27.860628 29.156711 27.814946 C 29.172202 27.769264 29.188251 27.7241 29.204824 27.678925 C 29.221397 27.633749 29.238266 27.588745 29.255906 27.544092 C 29.273546 27.499438 29.29186 27.455156 29.310552 27.41104 C 29.329244 27.366925 29.34844 27.32274 29.368168 27.279177 C 29.387895 27.235614 29.408006 27.192684 29.428754 27.14969 C 29.449501 27.106696 29.471151 27.0638 29.492903 27.02139 C 29.514656 26.978981 29.536687 26.936683 29.559429 26.894873 C 29.582171 26.853063 29.605209 26.811926 29.628924 26.770732 C 29.65264 26.729537 29.67731 26.688341 29.701984 26.647778 C 29.726657 26.607215 29.751803 26.567117 29.777419 26.5272 C 29.803035 26.487284 29.828688 26.447659 29.85523 26.408405 C 29.881773 26.36915 29.909151 26.329968 29.936605 26.291391 C 29.964059 26.252814 29.992007 26.214637 30.020356 26.176753 C 30.048706 26.138869 30.077253 26.101666 30.106483 26.064491 C 30.135713 26.027316 30.165486 25.990461 30.19558 25.954011 C 30.225674 25.917561 30.256109 25.881617 30.287053 25.845907 C 30.317996 25.810197 30.349124 25.77454 30.380901 25.739585 C 30.412678 25.70463 30.445125 25.669822 30.47772 25.635639 C 30.510314 25.601455 30.543517 25.568059 30.576914 25.534662 C 30.610311 25.501265 30.643707 25.468062 30.67789 25.435468 C 30.712074 25.402873 30.746882 25.37102 30.781837 25.339243 C 30.816791 25.307467 30.851855 25.275744 30.887565 25.244801 C 30.923275 25.213857 30.959813 25.183422 30.996263 25.153328 C 31.032713 25.123234 31.069568 25.093461 31.106743 25.064231 C 31.143918 25.035002 31.181121 25.006454 31.219005 24.978104 C 31.256889 24.949755 31.295066 24.921807 31.333643 24.894353 C 31.37222 24.8669 31.411402 24.839521 31.450657 24.812978 C 31.489911 24.786436 31.529535 24.760783 31.569452 24.735167 C 31.609369 24.709551 31.649466 24.684405 31.69003 24.659732 C 31.730593 24.635059 31.771195 24.610982 31.812389 24.587266 C 31.853584 24.563551 31.895315 24.539919 31.937125 24.517177 C 31.978935 24.494435 32.021233 24.472404 32.063642 24.450651 C 32.106052 24.428899 32.148354 24.407844 32.191348 24.387096 C 32.234342 24.366348 32.277866 24.345643 32.321429 24.325916 C 32.364992 24.306188 32.408582 24.286992 32.452698 24.2683 C 32.496814 24.249608 32.54169 24.231888 32.586343 24.214248 C 32.630997 24.196608 32.676001 24.179145 32.721177 24.162572 C 32.766352 24.145999 32.811516 24.12995 32.857198 24.11446 C 32.90288 24.098969 32.948828 24.084304 32.995001 24.069911 C 33.041173 24.055519 33.087344 24.041611 33.133992 24.028333 C 33.18064 24.015054 33.227657 24.002467 33.274765 23.990318 C 33.321872 23.978169 33.369174 23.966278 33.416725 23.955273 C 33.464277 23.944269 33.511894 23.933637 33.559874 23.923792 C 33.607855 23.913948 33.656412 23.905138 33.704805 23.896469 C 33.753198 23.887801 33.801539 23.879593 33.85033 23.872116 C 33.899121 23.86464 33.948464 23.857596 33.997636 23.851327 C 34.046809 23.845058 34.095998 23.839742 34.145537 23.834696 C 34.195076 23.829649 34.244736 23.824843 34.294626 23.821034 C 34.344515 23.817226 34.394677 23.814085 34.444902 23.811531 C 34.495127 23.808976 34.545228 23.806876 34.595773 23.805591 C 34.646317 23.804306 34.696983 23.803809 34.747831 23.803809 z " /><path
         style="fill:#000000;fill-opacity:1"
         d="m 61.76942,15.03616 c -0.05488,-0.131758 -0.09605,-0.271797 -0.123516,-0.411796 -0.03019,-0.14 -0.04391,-0.285508 -0.04391,-0.428244 0,-0.142736 0.01371,-0.288242 0.04391,-0.428244 0.02746,-0.14 0.06863,-0.28 0.123516,-0.411756 0.05488,-0.131756 0.123516,-0.260781 0.203125,-0.378828 0.07961,-0.120781 0.170195,-0.23332 0.271758,-0.334883 0.101563,-0.101563 0.214102,-0.192148 0.334883,-0.271758 0.118047,-0.07961 0.24707,-0.148242 0.378828,-0.203125 0.131758,-0.05488 0.271758,-0.09605 0.411756,-0.123516 0.713712,-0.145508 1.471368,0.09059 1.981952,0.598436 0.09883,0.101562 0.192148,0.214102 0.271758,0.334883 0.07961,0.118047 0.148242,0.24707 0.203125,0.378828 0.05488,0.131758 0.09605,0.271758 0.123516,0.411756 0.0302,0.14 0.04391,0.285508 0.04391,0.428244 0,0.142736 -0.01371,0.288242 -0.04391,0.428244 -0.02746,0.14 -0.06863,0.28 -0.123516,0.411756 -0.05488,0.131756 -0.123516,0.260781 -0.203125,0.378828 -0.07961,0.120781 -0.17293,0.23332 -0.271758,0.334883 -0.101562,0.101562 -0.214102,0.192148 -0.334883,0.271758 -0.118047,0.07961 -0.24707,0.148242 -0.378828,0.203125 -0.131758,0.05488 -0.271758,0.09605 -0.411756,0.123516 -0.14,0.03019 -0.285508,0.04391 -0.428244,0.04391 -0.142736,0 -0.288242,-0.01371 -0.428244,-0.04391 -0.14,-0.02746 -0.28,-0.06863 -0.411756,-0.123516 -0.131756,-0.05488 -0.260781,-0.123516 -0.378828,-0.203125 -0.120781,-0.07961 -0.23332,-0.170195 -0.334883,-0.271758 -0.101563,-0.101563 -0.192148,-0.214102 -0.271758,-0.334883 -0.07961,-0.118047 -0.148242,-0.24707 -0.203125,-0.378828 z"
         id="path11882" /><path
         style="fill:#000000;fill-opacity:1"
         d="m 63.798056,19.41184 c 1.212772,0 2.196056,0.98328 2.196056,2.196056 v 16.196 c 0,1.212772 -0.98328,2.196056 -2.196056,2.196056 -1.212776,0 -2.196056,-0.98328 -2.196056,-2.196056 v -16.196 c 0,-1.212772 0.98328,-2.196056 2.196056,-2.196056 z"
         id="path11880" /><path
         style="fill:#000000;fill-opacity:1"
         d="m 57.4468,35.60784 c 1.212772,0 2.196092,0.98332 2.196092,2.196092 0,1.212772 -0.98328,2.196056 -2.196056,2.196056 -5.76688,0 -10.4588,-4.69192 -10.4588,-10.4588 v -15.34504 c 0,-1.212772 0.98328,-2.196056 2.196056,-2.196056 1.212776,0 2.196056,0.98328 2.196056,2.196056 v 15.34504 c 0,3.345156 2.721484,6.06664 6.06664,6.06664 z"
         id="path11878" /><path
         style="fill:#000000;fill-opacity:1"
         d="m 1.621328,21.92448 c -8.2e-4,-0.03898 8.59e-4,-0.07832 0.0025,-0.116758 0.00109,-0.02332 -2.73e-4,-0.04637 0.00137,-0.06996 0.00109,-0.01512 0.00301,-0.02992 0.0041,-0.04504 l 0.00246,-0.02719 c 0.412304,-5.4254 4.9774,-9.66492 10.4272,-9.66492 5.76688,0 10.4588,4.69192 10.4588,10.4588 0,1.212772 -0.98328,2.196056 -2.196056,2.196056 -1.212776,0 -2.196056,-0.98328 -2.196056,-2.196056 0,-3.345156 -2.721484,-6.06664 -6.06664,-6.06664 -2.858476,0 -5.29172,2.012696 -5.90936,4.72404 l 7.46228,7.46228 c 0.85758,0.85758 0.85758,2.247968 0,3.105548 -0.428788,0.428788 -0.990704,0.643164 -1.552892,0.643164 -0.562188,0 -1.1241,-0.214375 -1.552892,-0.643164 L 2.263182,23.44168 C 2.246424,23.424924 2.23244,23.407073 2.216502,23.390041 2.189588,23.361213 2.162674,23.332658 2.1374,23.302463 2.113806,23.274455 2.092126,23.245901 2.070174,23.217346 2.049041,23.189612 2.028182,23.161877 2.008416,23.133322 1.986463,23.101486 1.965877,23.069103 1.945838,23.036447 1.928807,23.008713 1.912049,22.980705 1.896112,22.95215 1.87744,22.918127 1.859862,22.884103 1.843104,22.849533 1.828299,22.819338 1.814315,22.789416 1.800878,22.758674 1.786347,22.725197 1.772909,22.691174 1.760292,22.65715 1.747675,22.623673 1.735878,22.590197 1.724901,22.5559 1.714471,22.52352 1.705135,22.49086 1.696346,22.45793 1.686466,22.42113 1.677401,22.38461 1.669432,22.347266 c -0.00687,-0.03238 -0.012383,-0.06477 -0.017891,-0.09715 -0.00633,-0.03762 -0.012109,-0.07551 -0.016484,-0.113672 -0.00383,-0.03457 -0.00629,-0.06914 -0.00848,-0.103711 -0.00246,-0.03598 -0.00465,-0.07195 -0.00519,-0.108203 z"
         id="path11872" /><path
         style="fill:#aa8800;fill-opacity:1"
         d="m 22.49616,30.07568 c 8.2e-4,0.03926 -6.25e-4,0.07832 -0.0023,0.116484 -0.0011,0.02332 2.73e-4,0.04637 -0.0014,0.06996 -0.0011,0.01512 -0.003,0.02992 -0.0041,0.04504 l -0.0025,0.02719 c -0.412304,5.4254 -4.9774,9.66492 -10.4272,9.66492 -5.76688,0 -10.4588,-4.69192 -10.4588,-10.4588 0,-1.212772 0.98328,-2.196056 2.196056,-2.196056 1.212776,0 2.196056,0.98328 2.196056,2.196056 0,3.345156 2.721484,6.06664 6.06664,6.06664 2.858476,0 5.29172,-2.012696 5.90936,-4.72404 l -7.46228,-7.46228 c -0.85758,-0.85758 -0.85758,-2.247968 0,-3.105548 0.857852,-0.85758 2.247968,-0.85758 3.10582,0 l 8.24296,8.24296 c 0.01676,0.01676 0.03074,0.03461 0.04668,0.05164 0.02691,0.02883 0.05383,0.05738 0.0791,0.08758 0.02359,0.02801 0.04527,0.05656 0.06723,0.08512 0.02113,0.02773 0.04199,0.05547 0.06176,0.08402 0.02195,0.03184 0.04254,0.06422 0.06258,0.09688 0.01703,0.02773 0.03379,0.05574 0.04973,0.0843 0.01867,0.03402 0.03625,0.06805 0.05301,0.102617 0.0148,0.02992 0.02906,0.06012 0.04223,0.09086 0.01453,0.03375 0.02797,0.0675 0.04059,0.101524 0.01262,0.03375 0.02441,0.06723 0.03539,0.101524 0.01016,0.03266 0.01949,0.06504 0.02828,0.09797 0.0099,0.03652 0.01895,0.07332 0.02691,0.110664 0.0069,0.03238 0.01238,0.06477 0.01789,0.09715 0.0063,0.03762 0.01211,0.07551 0.01648,0.113672 0.0038,0.03457 0.0063,0.06914 0.0085,0.103711 0.0025,0.03598 0.0046,0.07195 0.0052,0.108203 z"
         id="path6731" /></g><path
       style="fill:#000000;stroke-width:0.0617226"
       d="m 113.4567,19.837696 v -3.17871 h 1.79352 1.7935 l -0.019,0.26145 -0.0189,0.26146 -0.12345,0.006 c -0.0678,0.004 -0.74208,0.0105 -1.49818,0.0163 l -1.37476,0.0105 0.0169,1.09558 0.0168,1.09558 1.08015,0.0117 c 0.59408,0.006 1.0732,0.027 1.06471,0.0463 -0.008,0.0193 -0.0154,0.13228 -0.0154,0.25109 v 0.21603 h -1.08014 -1.08015 v 1.26531 1.26533 h 1.54306 1.54308 v 0.27775 0.27774 h -1.82083 -1.82081 z"
       id="path11906" /><path
       style="fill:#000000;stroke-width:0.0617226"
       d="m 107.88678,22.757076 c -0.0526,-0.14593 -0.30452,-0.87636 -0.55976,-1.6232 -0.25524,-0.74685 -0.70253,-2.04978 -0.99398,-2.89541 -0.29146,-0.84564 -0.52994,-1.54696 -0.52994,-1.55849 0,-0.0117 0.13241,-0.0211 0.29422,-0.0211 h 0.29422 l 0.37907,1.12644 c 1.09683,3.25945 1.44704,4.27543 1.48757,4.31563 l 0.0447,0.0443 0.9335,-2.72777 0.93349,-2.72779 0.29357,-0.0192 0.29356,-0.0192 -0.0389,0.1014 c -0.0213,0.0558 -0.40221,1.14765 -0.84622,2.42633 -0.44399,1.27867 -0.92311,2.65816 -1.06468,3.06553 l -0.25737,0.74066 -0.28367,0.0185 -0.28365,0.0184 z"
       id="path11904" /><path
       style="fill:#000000;stroke-width:0.0617226"
       d="m 98.705025,19.837696 v -3.17871 h 0.27775 0.27775 v 3.17871 3.17871 h -0.27775 -0.27775 z"
       id="path11902" /><path
       style="fill:#000000;stroke-width:0.0617226"
       d="m 92.409325,19.837696 v -3.17871 h 1.7935 1.7935 l -0.0189,0.26232 -0.019,0.26232 -1.4196,0.0124 c -0.78081,0.007 -1.45434,0.0137 -1.49678,0.0156 l -0.0772,0.004 v 1.14186 1.14187 h 1.111 1.11101 v 0.27775 0.27776 h -1.11101 -1.111 v 1.48134 1.48134 h -0.27775 -0.27776 z"
       id="path11900" /><path
       style="fill:#aa8800;stroke-width:0.0617226"
       d="m 92.974995,29.737196 c -3.36773,-0.45169 -6.34194,-2.62478 -7.78648,-5.68918 -0.16345,-0.34673 -0.30686,-0.67426 -0.3187,-0.72784 l -0.0214,-0.0974 0.37029,-0.65564 c 0.20367,-0.36061 0.38675,-0.63618 0.40686,-0.61239 0.0201,0.0237 0.1007,0.25156 0.17896,0.50618 0.9197,2.98945 3.57492,5.35616 6.75921,6.02475 l 0.5555,0.11661 h 1.20359 1.20359 l 0.64809,-0.14451 c 1.78016,-0.39694 3.34592,-1.2904 4.619295,-2.6359 l 0.57001,-0.6023 0.34958,-0.53066 c 0.78498,-1.19163 1.25922,-2.44897 1.44214,-3.82357 l 0.0707,-0.5307 -0.0327,-0.98916 -0.0328,-0.98914 -0.15566,-0.61723 c -0.30806,-1.22182 -0.7046,-2.12147 -1.36023,-3.08614 l -0.37753,-0.5555 -0.67932,-0.68146 -0.679295,-0.68146 -0.61797,-0.41107 c -1.14559,-0.76204 -2.36714,-1.23586 -3.69412,-1.4329 l -0.64156,-0.0952 h -0.61092 c -1.21483,0 -2.41973,0.23921 -3.47779,0.69046 -0.3225,0.13754 -0.62802,0.26586 -0.67894,0.28514 l -0.0926,0.035 0.0699,-0.0887 c 0.0572,-0.0724 1.15994,-1.97469 1.64375,-2.83536 0.0668,-0.11882 0.30812,-0.53545 0.53632,-0.92585 0.22818,-0.3904 0.5617,-0.96673 0.74116,-1.28074 l 0.32628,-0.57093 h 5.48563 5.485635 v 0.58601 0.58601 l -5.158055,0.0158 -5.15809,0.0158 -0.6747,1.16603 c -0.3711,0.6413 -0.67472,1.19309 -0.67472,1.22621 v 0.0602 l 0.16975,-0.038 c 0.0933,-0.0208 0.57247,-0.0552 1.06471,-0.0761 l 0.89498,-0.0381 0.72838,0.10234 c 1.76033,0.24734 3.18889,0.81144 4.622945,1.82543 l 0.56739,0.4012 0.65207,0.64808 0.65206,0.6481 0.40054,0.57137 c 0.81694,1.1654 1.28593,2.16876 1.6038,3.43112 0.85372,3.39053 -0.0564,6.87508 -2.46488,9.43768 -1.46901,1.56297 -3.387455,2.58552 -5.651315,3.01217 l -0.37032,0.0697 -1.08015,0.0213 -1.08014,0.0213 z"
       id="path11647" /></g></svg>
